inDegrees=no
num_controls=7
num_derivatives=13
num_iterations=34
num_multipliers=7
num_parameters=0
num_slacks=7
num_states=26
objective=0.426479
objective_accelerations=0.058917
objective_balance=0.001130
objective_effort=0.015642
objective_height=0.344764
objective_ligament=0.006024
solver_duration=512.838421
status=Solve_Succeeded
success=true
DataType=double
version=3
OpenSimVersion=4.5
endheader
time	/jointset/ground_pelvis/pelvis_tilt/value	/jointset/ground_pelvis/pelvis_tx/value	/jointset/ground_pelvis/pelvis_ty/value	/jointset/hip_l/hip_flexion_l/value	/jointset/hip_l/hip_adduction_l/value	/jointset/hip_l/hip_rotation_l/value	/jointset/back/lumbar_extension/value	/jointset/patellofemoral_l/patellar_flexion_l/value	/jointset/knee_l/knee_flexion_l/value	/jointset/knee_l/knee_adduction_l/value	/jointset/knee_l/knee_rotation_l/value	/jointset/ankle_l/ankle_angle_l/value	/jointset/subtalar_l/subtalar_angle_l/value	/jointset/ground_pelvis/pelvis_tilt/speed	/jointset/ground_pelvis/pelvis_tx/speed	/jointset/ground_pelvis/pelvis_ty/speed	/jointset/hip_l/hip_flexion_l/speed	/jointset/hip_l/hip_adduction_l/speed	/jointset/hip_l/hip_rotation_l/speed	/jointset/back/lumbar_extension/speed	/jointset/patellofemoral_l/patellar_flexion_l/speed	/jointset/knee_l/knee_flexion_l/speed	/jointset/knee_l/knee_adduction_l/speed	/jointset/knee_l/knee_rotation_l/speed	/jointset/ankle_l/ankle_angle_l/speed	/jointset/subtalar_l/subtalar_angle_l/speed	/forceset/tau_hip_flexion_l	/forceset/tau_hip_adduction_l	/forceset/tau_hip_rotation_l	/forceset/tau_knee_flexion_l	/forceset/tau_ankle_angle_l	/forceset/tau_subtalar_angle_l	/forceset/tau_lumbar_extension	lambda_cid13_p0	lambda_cid13_p1	lambda_cid13_p2	lambda_cid13_p3	lambda_cid13_p4	lambda_cid13_p5	lambda_cid14_p0	/jointset/ground_pelvis/pelvis_tilt/accel	/jointset/ground_pelvis/pelvis_tx/accel	/jointset/ground_pelvis/pelvis_ty/accel	/jointset/hip_l/hip_flexion_l/accel	/jointset/hip_l/hip_adduction_l/accel	/jointset/hip_l/hip_rotation_l/accel	/jointset/back/lumbar_extension/accel	/jointset/patellofemoral_l/patellar_flexion_l/accel	/jointset/knee_l/knee_flexion_l/accel	/jointset/knee_l/knee_adduction_l/accel	/jointset/knee_l/knee_rotation_l/accel	/jointset/ankle_l/ankle_angle_l/accel	/jointset/subtalar_l/subtalar_angle_l/accel	gamma_cid13_p0	gamma_cid13_p1	gamma_cid13_p2	gamma_cid13_p3	gamma_cid13_p4	gamma_cid13_p5	gamma_cid14_p0
1	-0.4568142897070815	-0.002694019900526409	0.5909103801566582	1.71362892934098	-0.3468748768388916	0.1459448834175508	-0.4362278918768837	1.5165853295838	1.516585329583755	0.05282832847262084	-0.1743716540877911	0.4348472423995967	0.2484898286625516	-0.1389075832269306	0.004856902357622292	0.04416766509053178	-0.009572697069101006	-0.003752855585440047	-0.05573059613197826	-0.002142685706565353	-0.1812213787021091	-0.1812213787020968	-0.0199828592404252	2.997489436155195e-05	-0.04883558151630853	-0.03557331653088484	-0.2387465726122081	0.08475810406937885	-0.01013585525459323	-0.29625715911636	-0.01063244570556849	-0.01921988470486452	0.2083190671877647	-39.98099008862159	26.57315016629061	-17.33980097233827	2.531168200035037	-543.8607862618892	-27.81044350152379	-0.02362776124416166	1.403563966793701	0.2715494204042303	2.044004709707102	-6.709012270218875	-0.2699040507518874	-1.60112957988579	-0.03022853527991511	-5.660643109490539	-5.660643109490538	-0.8948581230542061	-0.02825740769297106	-0.8476204830537474	-0.937034238359325	-6.308882774098432e-09	-1.32601872849189e-07	-5.9208786478436e-08	-1.01639151639491e-08	-8.429834209962514e-09	-1.577282450033916e-07	2.800785513344337e-09
1.01	-0.4581338235470389	-0.002631829558632577	0.5914540300968297	1.713198765677493	-0.3469253184057104	0.1453092895386224	-0.4362497081741377	1.514490477825441	1.514490477825411	0.05258289646155397	-0.1743713283901058	0.4343165000673851	0.2480882215806927	-0.124981586987428	0.007591875009753677	0.06455211092787552	-0.0764577367194	-0.006330217070982731	-0.07138280471683037	-0.002200615642751801	-0.237742023046325	-0.2377420230463079	-0.02909578783533119	3.568918936949761e-05	-0.05732284095576429	-0.04473896403838609	-0.2392810684680896	0.08470837402321287	-0.0101335029535797	-0.2951167861664404	-0.01118385309380461	-0.01914654483251234	0.2086440025018262	-40.10427823792935	26.49170439457898	-17.24551044759696	2.4380208897857	-543.6924744172517	-27.75105195594915	-0.02364579477455598	1.389756578341764	0.2760739353756277	2.03413025134942	-6.677905614670465	-0.250851709907539	-1.546468100664415	0.009418492380968365	-5.646733315948214	-5.646733315947541	-0.9183600370992493	0.01503794993103713	-0.8507810020494287	-0.9049232888861372	-6.804694729458541e-09	-1.676049785885605e-07	-8.031805373853779e-08	-1.792350739655598e-08	-1.229583879762477e-08	-1.957129729669538e-07	3.530550326294556e-09
1.02	-0.4593135695994411	-0.00254196894066631	0.5922012176414952	1.712099820457049	-0.3470013734898733	0.1445173332532491	-0.4362715050277002	1.511830627979827	1.511830627979811	0.05224656520277426	-0.174370935129092	0.4337005846752586	0.2475952393673707	-0.110950025715386	0.01039095757210937	0.08487518598928785	-0.143329008459095	-0.008875559054595476	-0.08700307741686801	-0.002138796972159569	-0.2942209961529852	-0.2942209961529632	-0.03816270880586049	4.348755771489484e-05	-0.06587019350154033	-0.05384834282351223	-0.2398155643240012	0.08465864397697312	-0.01013115065213879	-0.2939764132165122	-0.01173526048205283	-0.01907320496029699	0.2089689378158506	-40.22952850804248	26.40749101046631	-17.14722473933377	2.335356696214246	-543.6346081302197	-27.6938618103872	-0.02366577407653871	1.424676973301629	0.2843714024490352	2.03173055452081	-6.706258688098016	-0.2635001503658605	-1.594742402922842	-0.006278813924091109	-5.652308861979377	-5.652308861979383	-0.8856565981788752	-0.02784059302541943	-0.8596391043179036	-0.925780493884295	-7.481394257340096e-09	-2.004571767370812e-07	-9.635010827919255e-08	-2.52265283476719e-08	-1.620232116105228e-08	-2.259918360166427e-07	3.185379059057332e-09
1.03	-0.4603524015148118	-0.002423755495515134	0.5931512346451573	1.710332367953886	-0.3471026725321859	0.1435694136523128	-0.436291955709635	1.508606346727157	1.508606346727122	0.05181984607065428	-0.1743704036697098	0.4329988590681237	0.2470115239171446	-0.09679114173802539	0.01326666437248478	0.1051086941071409	-0.2101466826883614	-0.01137498666722529	-0.1025623569919325	-0.001919042379470196	-0.3506133699414359	-0.3506133699414237	-0.04717496156227896	6.711700792060599e-05	-0.07448829290376609	-0.06287904564382511	-0.2402322382657108	0.08463773444768415	-0.0101084103708032	-0.2925162817002994	-0.01236834260190901	-0.0189741582043613	0.2092370869938581	-40.354445317996	26.2954564332775	-17.02554456401614	2.225177470313665	-543.2855681354771	-27.6132820130778	-0.02369236289048049	1.415275046438073	0.2914037066170221	2.016228799465911	-6.667301910641563	-0.2417537866833174	-1.533760026525695	0.04094715161656753	-5.62941953501003	-5.629419535011518	-0.9081058127513244	0.01807491153152443	-0.8649123719340447	-0.8893092121848462	-8.159939576777995e-09	-2.332874268489605e-07	-1.123303545267917e-07	-3.252489040816036e-08	-2.0109216563008e-08	-2.561920677917e-07	2.829239056307985e-09
1.04	-0.4612488884031166	-0.00227633830480362	0.5943030003018077	1.707897182684362	-0.3472286837946185	0.1424664533972713	-0.4363092399344944	1.504818798157056	1.504818798157004	0.05130318517137438	-0.1743695138763246	0.4322105490642191	0.2463379826314996	-0.0824810203012613	0.01623170668417693	0.125224916586937	-0.2768755617296455	-0.01381800307872035	-0.1180112082360979	-0.00150550555671742	-0.4068744596391723	-0.4068744596391696	-0.05615106225381935	0.0001151543576482123	-0.08318707285636062	-0.0718135099073402	-0.2406489122074488	0.08461682491836291	-0.01008567008916221	-0.2910561501840768	-0.01300142472176671	-0.01887511144848507	0.2095052361718336	-40.48162135674853	26.180786702684	-16.89998220267183	2.105573513311845	-543.0486275944596	-27.53570375578571	-0.0237209394797629	1.454924465182393	0.3022385047123263	2.008273426909417	-6.688499650501488	-0.2522179101388661	-1.572656736742957	0.0324776320887428	-5.626052043836482	-5.626052043836473	-0.8784261852032622	-0.02295901312097597	-0.8757752143917579	-0.9065327825247245	-9.047307211220761e-09	-2.665759366214293e-07	-1.266540507177754e-07	-3.947569188200784e-08	-2.393009626158554e-08	-2.844210322763592e-07	2.019435043261737e-09
1.05	-0.462001608899045	-0.002098789230770674	0.5956552313015522	1.704795463480575	-0.3473788377840556	0.1412094871635143	-0.4363211041338917	1.500469421432048	1.500469421432032	0.05069707801167724	-0.1743680957369315	0.4313347788684416	0.2455755662329032	-0.06804717723522466	0.01929653827861793	0.1451908159138287	-0.3434230685573836	-0.01620330899620351	-0.1333639738479341	-0.0008031618012153432	-0.4629663759614782	-0.4629663759614555	-0.06505844743671065	0.0001655936004109751	-0.0919868116740221	-0.08065539414517268	-0.2409339175712236	0.08462573153011539	-0.01004455637683763	-0.2892918270199438	-0.01369262949226325	-0.01875495200241984	0.2097131466405613	-40.60186451138381	26.04097552613384	-16.75355430336225	1.973617357370654	-542.5209467239391	-27.43173135601511	-0.02375674146027114	1.439997201065219	0.3113606568609981	1.986172480100945	-6.631097080198662	-0.2302369868032795	-1.513893784891902	0.09873862645541695	-5.59558524702909	-5.595585247026104	-0.8951331111073784	0.01856733795198203	-0.8850657712418708	-0.8707950441905778	-9.941200543007428e-09	-2.998787670082915e-07	-1.409259797194899e-07	-4.641563208752279e-08	-2.774828796943251e-08	-3.125883946581934e-07	1.195454029893714e-09
1.06	-0.462609514369569	-0.00189004080678354	0.5972062061534701	1.701029625032245	-0.3475525548435173	0.1397995318113323	-0.4363240197199699	1.495560160779696	1.495560160779721	0.05000224931493702	-0.1743662688161115	0.4303704127733335	0.2447251752319734	-0.05351801521913899	0.02247157667501488	0.1649736870215996	-0.4096994106366628	-0.01853061708369128	-0.1486090319192907	0.0002842171212817358	-0.5188512451078443	-0.5188512451078016	-0.07389536967061511	0.0001969106422596881	-0.1009062527232289	-0.0894084303741281	-0.2412189229350249	0.08463463814184026	-0.01000344266435685	-0.2875275038558073	-0.01438383426276072	-0.01863479255640308	0.2099210571092595	-40.72472605919685	25.89865476684187	-16.60333587258547	1.832370430826333	-542.1073309838505	-27.33202770749373	-0.02379462444977417	1.473988255192251	0.324279865103459	1.971667783085252	-6.634266700809643	-0.240618344139745	-1.551115228646995	0.1094846654877032	-5.584642608648498	-5.584642608648526	-0.8643335954058943	-0.0267834533037199	-0.8997156607009149	-0.8887631807492989	-1.073841339314183e-08	-3.283083531112458e-07	-1.49647889241362e-07	-5.261092973262099e-08	-3.063903119810096e-08	-3.313875237600137e-07	-5.05522099114184e-10
1.07	-0.4630719871616295	-0.00164895255113443	0.5989539348561318	1.696602992908284	-0.3477492191781809	0.1382376233988586	-0.4363133820844511	1.490093299605378	1.490093299605387	0.04921958047589172	-0.1743642257294366	0.4293162193338321	0.2437877570353045	-0.03899641438966742	0.02576824924324428	0.1845255179441203	-0.4755190406329911	-0.02078936466460714	-0.1637494733624472	0.001985606081820453	-0.5744650551814561	-0.574465055181429	-0.08261910962013461	0.0002094989501703095	-0.1099553856127264	-0.09805498005624856	-0.2414325667311495	0.08466884499498738	-0.009948581785320577	-0.2853754058776262	-0.01519873454092743	-0.01848955976788674	0.2101307382382437	-40.85948330562393	25.72865487115719	-16.42714774124977	1.676993901005668	-541.3863993072582	-27.19944667355889	-0.02383963622055289	1.438262201951003	0.3356753304327922	1.9399536755456	-6.53961843001027	-0.2165385531510698	-1.492054279579503	0.2218104219308059	-5.541359545237611	-5.541359545239958	-0.8735348461715914	0.01489656806322688	-0.9109734237141123	-0.8494906188537242	-1.153048366446494e-08	-3.564787240927155e-07	-1.580745849611148e-07	-5.876661873088851e-08	-3.348044206085567e-08	-3.496883425809821e-07	-2.253146904485911e-09
1.08	-0.4633898407043746	-0.00137423469425342	0.6008957844537607	1.691521403028162	-0.3479680781062693	0.136525001436459	-0.436281461676784	1.484071978462621	1.484071978462616	0.04835024610707865	-0.1743621334406336	0.4281708423013106	0.2427644953904328	-0.02459416535512927	0.02919749692139485	0.2037978660150471	-0.5406909618679485	-0.02296953576886221	-0.178751741902786	0.004540771466134782	-0.6297432387958742	-0.6297432387958625	-0.09122847562751783	0.0002067510670737024	-0.1191429713278255	-0.1065771200147816	-0.2416462105272809	0.08470305184811372	-0.009893720906217223	-0.2832233078994449	-0.01601363481909675	-0.01834432697940698	0.2103404193672192	-40.99728706069227	25.55630904623429	-16.24729651011124	1.512605833242324	-540.7816153844482	-27.07264737465254	-0.02388688628161408	1.450117896205611	0.3507948870876406	1.915771212766451	-6.504724948535437	-0.2249030488075439	-1.523480648083407	0.2802399502435565	-5.517517316809784	-5.517517316809749	-0.8414588069786372	-0.02985069150509909	-0.9274062258213074	-0.8638812360318004	-1.273432670909167e-08	-3.800356275372478e-07	-1.620489214914291e-07	-6.302195077979771e-08	-3.656368208453345e-08	-3.602818525586965e-07	-4.494346572636804e-09
